<?xml version="1.0" standalone="no"?>
<!DOCTYPE svg PUBLIC "-//W3C//DTD SVG 20010904//EN"
 "http://www.w3.org/TR/2001/REC-SVG-20010904/DTD/svg10.dtd">
<svg version="1.0" xmlns="http://www.w3.org/2000/svg"
 width="1024.000000pt" height="1024.000000pt" viewBox="0 0 1024.000000 1024.000000"
 preserveAspectRatio="xMidYMid meet">

<g transform="translate(0.000000,1024.000000) scale(0.100000,-0.100000)"
fill="#000000" stroke="none">
<path d="M5024 10198 c-5 -7 -7 -36 -7 -64 1 -53 10 -76 106 -290 140 -311
237 -713 267 -1104 28 -369 0 -698 -90 -1062 -100 -405 -318 -842 -619 -1241
-211 -280 -421 -509 -837 -912 -800 -776 -977 -971 -1188 -1308 -395 -633
-502 -1416 -279 -2047 77 -220 316 -660 492 -908 176 -248 411 -503 622 -673
91 -73 285 -209 299 -209 11 0 20 94 20 207 0 112 23 361 45 488 8 44 17 96
20 115 39 225 171 659 262 860 143 315 257 522 434 787 241 359 480 644 905
1073 308 311 378 388 473 515 252 336 413 646 540 1039 199 613 214 1250 46
1901 -99 383 -174 552 -498 1115 -348 607 -550 959 -646 1125 -51 88 -107 185
-124 215 -17 30 -68 120 -114 199 -47 79 -89 154 -95 167 -12 27 -23 30 -34
12z"/>
<path d="M4590 9406 c0 -81 -93 -410 -174 -618 -112 -285 -351 -762 -561
-1118 -18 -30 -63 -107 -101 -170 -87 -148 -285 -458 -493 -775 -131 -199
-398 -580 -648 -925 -64 -87 -317 -425 -435 -581 -111 -145 -125 -167 -216
-349 -124 -246 -228 -531 -283 -780 -57 -261 -72 -406 -43 -434 17 -18 24 -19
49 -10 23 9 39 45 74 168 57 195 172 451 301 666 73 120 226 344 298 435 197
247 528 594 922 966 437 412 621 602 831 859 234 285 423 641 532 1000 70 232
89 342 112 650 11 143 -18 495 -54 665 -35 162 -54 239 -76 299 -29 81 -35 89
-35 52z"/>
<path d="M7990 4888 c-36 -23 -78 -49 -95 -58 -195 -112 -661 -411 -830 -533
-174 -125 -499 -376 -625 -482 -354 -297 -732 -674 -960 -960 -35 -44 -80
-100 -100 -125 -113 -142 -264 -366 -372 -555 -211 -370 -356 -751 -422 -1112
-68 -373 -66 -496 9 -660 93 -201 253 -324 498 -382 146 -34 635 29 972 125
625 180 1031 399 1372 741 339 341 613 748 771 1148 199 504 282 987 253 1473
-16 271 -42 447 -97 662 -77 301 -255 761 -293 759 -9 0 -45 -19 -81 -41z"/>
</g>
</svg>
